G75*
G70*
%OFA0B0*%
%FSLAX24Y24*%
%IPPOS*%
%LPD*%
%AMOC8*
5,1,8,0,0,1.08239X$1,22.5*
%
%ADD10C,0.0320*%
%ADD11C,0.0580*%
%ADD12C,0.0660*%
%ADD13C,0.0614*%
%ADD14C,0.0926*%
%ADD15C,0.0729*%
%ADD16R,3.2000X0.3000*%
%ADD17C,0.0920*%
%ADD18C,0.2560*%
%ADD19C,0.0535*%
%ADD20C,0.0456*%
D10*
X025118Y007725D02*
X025243Y007725D01*
X025243Y008475D01*
X025118Y008475D01*
X025118Y007725D01*
X025118Y007878D02*
X025243Y007878D01*
X025243Y008196D02*
X025118Y008196D01*
X026118Y008196D02*
X026243Y008196D01*
X026243Y008475D02*
X026243Y007725D01*
X026118Y007725D01*
X026118Y008475D01*
X026243Y008475D01*
X026243Y007878D02*
X026118Y007878D01*
X027118Y007878D02*
X027243Y007878D01*
X027243Y007725D02*
X027118Y007725D01*
X027118Y008475D01*
X027243Y008475D01*
X027243Y007725D01*
X027243Y008196D02*
X027118Y008196D01*
X028118Y008196D02*
X028243Y008196D01*
X028243Y008475D02*
X028243Y007725D01*
X028118Y007725D01*
X028118Y008475D01*
X028243Y008475D01*
X028243Y007878D02*
X028118Y007878D01*
X029118Y007878D02*
X029243Y007878D01*
X029243Y007725D02*
X029118Y007725D01*
X029118Y008475D01*
X029243Y008475D01*
X029243Y007725D01*
X029243Y008196D02*
X029118Y008196D01*
X030118Y008196D02*
X030243Y008196D01*
X030243Y008475D02*
X030243Y007725D01*
X030118Y007725D01*
X030118Y008475D01*
X030243Y008475D01*
X030243Y007878D02*
X030118Y007878D01*
X031118Y007878D02*
X031243Y007878D01*
X031243Y007725D02*
X031118Y007725D01*
X031118Y008475D01*
X031243Y008475D01*
X031243Y007725D01*
X031243Y008196D02*
X031118Y008196D01*
X032118Y008196D02*
X032243Y008196D01*
X032243Y008475D02*
X032243Y007725D01*
X032118Y007725D01*
X032118Y008475D01*
X032243Y008475D01*
X032243Y007878D02*
X032118Y007878D01*
D11*
X032180Y006600D03*
X031180Y006600D03*
X030180Y006600D03*
X029180Y006600D03*
X028180Y006600D03*
X027180Y006600D03*
X026180Y006600D03*
X025180Y006600D03*
X024180Y006600D03*
X022680Y007600D03*
X022680Y008600D03*
X024180Y009600D03*
X025180Y009600D03*
X026180Y009600D03*
X027180Y009600D03*
X028180Y009600D03*
X029180Y009600D03*
X030180Y009600D03*
X031180Y009600D03*
X032180Y009600D03*
X033180Y009600D03*
X035680Y008600D03*
X035680Y007600D03*
X037180Y006600D03*
X038180Y006600D03*
X039180Y006600D03*
X040180Y006600D03*
X041180Y006600D03*
X042180Y006600D03*
X043180Y006600D03*
X044180Y006600D03*
X044180Y009600D03*
X043180Y009600D03*
X042180Y009600D03*
X041180Y009600D03*
X040180Y009600D03*
X039180Y009600D03*
X038180Y009600D03*
X037180Y009600D03*
X037180Y012600D03*
X038180Y012600D03*
X039180Y012600D03*
X040180Y012600D03*
X041180Y012600D03*
X042180Y012600D03*
X043180Y012600D03*
X044180Y012600D03*
X046930Y013600D03*
X046930Y014600D03*
X048180Y015600D03*
X049180Y015600D03*
X050180Y015600D03*
X051180Y015600D03*
X052180Y015600D03*
X053180Y015600D03*
X054180Y015600D03*
X055180Y015600D03*
X056180Y015600D03*
X057180Y015600D03*
X062180Y015600D03*
X063180Y015600D03*
X064180Y015600D03*
X065180Y015600D03*
X066180Y015600D03*
X067180Y015600D03*
X068180Y015600D03*
X069180Y015600D03*
X070180Y015600D03*
X071180Y015600D03*
X071180Y012600D03*
X070180Y012600D03*
X069180Y012600D03*
X068180Y012600D03*
X067180Y012600D03*
X066180Y012600D03*
X065180Y012600D03*
X064180Y012600D03*
X063180Y012600D03*
X062180Y012600D03*
X062180Y010600D03*
X061180Y010600D03*
X060180Y010600D03*
X059180Y010600D03*
X058180Y010600D03*
X057180Y010600D03*
X056180Y010600D03*
X055180Y010600D03*
X053930Y009600D03*
X053930Y008600D03*
X055180Y007600D03*
X056180Y007600D03*
X057180Y007600D03*
X058180Y007600D03*
X059180Y007600D03*
X060180Y007600D03*
X061180Y007600D03*
X062180Y007600D03*
X063180Y007600D03*
X064180Y007600D03*
X067930Y008600D03*
X069180Y007600D03*
X070180Y007600D03*
X071180Y007600D03*
X072180Y007600D03*
X073180Y007600D03*
X074180Y007600D03*
X075180Y007600D03*
X076180Y007600D03*
X077180Y007600D03*
X078180Y007600D03*
X078180Y010600D03*
X077180Y010600D03*
X076180Y010600D03*
X075180Y010600D03*
X075180Y011600D03*
X076180Y011600D03*
X077180Y011600D03*
X078180Y011600D03*
X074180Y011600D03*
X073180Y011600D03*
X072180Y011600D03*
X071180Y011600D03*
X070180Y011600D03*
X070180Y010600D03*
X069180Y010600D03*
X067930Y009600D03*
X071180Y010600D03*
X072180Y010600D03*
X073180Y010600D03*
X074180Y010600D03*
X064180Y010600D03*
X063180Y010600D03*
X057180Y012600D03*
X056180Y012600D03*
X055180Y012600D03*
X054180Y012600D03*
X053180Y012600D03*
X052180Y012600D03*
X051180Y012600D03*
X050180Y012600D03*
X049180Y012600D03*
X048180Y012600D03*
X044180Y015600D03*
X043180Y015600D03*
X042180Y015600D03*
X041180Y015600D03*
X040180Y015600D03*
X039180Y015600D03*
X038180Y015600D03*
X037180Y015600D03*
X035555Y014600D03*
X035555Y013600D03*
X033180Y012600D03*
X032180Y012600D03*
X031180Y012600D03*
X030180Y012600D03*
X029180Y012600D03*
X028180Y012600D03*
X027180Y012600D03*
X026180Y012600D03*
X025180Y012600D03*
X024180Y012600D03*
X022680Y013600D03*
X022680Y014600D03*
X024180Y015600D03*
X025180Y015600D03*
X026180Y015600D03*
X027180Y015600D03*
X028180Y015600D03*
X029180Y015600D03*
X030180Y015600D03*
X031180Y015600D03*
X032180Y015600D03*
X033180Y015600D03*
X033180Y018600D03*
X032180Y018600D03*
X031180Y018600D03*
X030180Y018600D03*
X029180Y018600D03*
X028180Y018600D03*
X027180Y018600D03*
X026180Y018600D03*
X025180Y018600D03*
X022180Y016600D03*
X020180Y015600D03*
X019180Y015600D03*
X018180Y015600D03*
X017180Y015600D03*
X016180Y015600D03*
X015180Y015600D03*
X014180Y015600D03*
X012680Y014600D03*
X012680Y013600D03*
X014180Y012600D03*
X015180Y012600D03*
X016180Y012600D03*
X017180Y012600D03*
X018180Y012600D03*
X019180Y012600D03*
X020180Y012600D03*
X020180Y009600D03*
X019180Y009600D03*
X018180Y009600D03*
X017180Y009600D03*
X016180Y009600D03*
X015180Y009600D03*
X014180Y009600D03*
X013180Y010600D03*
X013180Y011600D03*
X010180Y012600D03*
X009180Y012600D03*
X008180Y012600D03*
X007180Y012600D03*
X006180Y012600D03*
X005180Y012600D03*
X004180Y012600D03*
X002680Y013600D03*
X002680Y014600D03*
X004180Y015600D03*
X005180Y015600D03*
X006180Y015600D03*
X007180Y015600D03*
X008180Y015600D03*
X009180Y015600D03*
X010180Y015600D03*
X012680Y016600D03*
X016680Y016600D03*
X018180Y016600D03*
X008180Y017600D03*
X007180Y017600D03*
X005680Y017600D03*
X004680Y017600D03*
X005180Y018350D03*
X005180Y021100D03*
X005180Y022100D03*
X007180Y021600D03*
X008180Y021600D03*
X025180Y024600D03*
X026180Y024600D03*
X027180Y024600D03*
X028180Y024600D03*
X029180Y024600D03*
X030180Y024600D03*
X031180Y024600D03*
X032180Y024600D03*
X033180Y024600D03*
X034180Y024600D03*
X035180Y024600D03*
X036180Y024600D03*
X037180Y024600D03*
X038180Y024600D03*
X037180Y025600D03*
X037180Y026600D03*
X043180Y027100D03*
X044180Y027100D03*
X045180Y027100D03*
X046180Y027100D03*
X047180Y027100D03*
X048180Y027100D03*
X049180Y027100D03*
X050180Y027100D03*
X051180Y027100D03*
X052180Y027100D03*
X053180Y027100D03*
X054180Y027100D03*
X055180Y027100D03*
X056180Y027100D03*
X057180Y027100D03*
X058180Y027100D03*
X059430Y027100D03*
X060680Y027100D03*
X060680Y028100D03*
X059430Y028100D03*
X058180Y024600D03*
X057180Y024600D03*
X056180Y024600D03*
X055180Y024600D03*
X054180Y024600D03*
X053180Y024600D03*
X052180Y024600D03*
X051180Y024600D03*
X050180Y024600D03*
X049180Y024600D03*
X048180Y024600D03*
X047180Y024600D03*
X046180Y024600D03*
X045180Y024600D03*
X044180Y024600D03*
X043180Y024600D03*
X039430Y019600D03*
X039430Y018600D03*
X038180Y018600D03*
X037180Y018600D03*
X036180Y018600D03*
X035180Y018600D03*
X034180Y018600D03*
X043180Y018600D03*
X044180Y018600D03*
X045180Y018600D03*
X046180Y018600D03*
X047180Y018600D03*
X048180Y018600D03*
X049180Y018600D03*
X050180Y018600D03*
X051180Y018600D03*
X052180Y018600D03*
X053180Y018600D03*
X054180Y018600D03*
X055180Y018600D03*
X056180Y018600D03*
X057180Y018600D03*
X058180Y018600D03*
X059430Y018600D03*
X059430Y019600D03*
X062180Y016600D03*
X063180Y016600D03*
X033180Y006600D03*
X020180Y006600D03*
X019180Y006600D03*
X018180Y006600D03*
X017180Y006600D03*
X016180Y006600D03*
X015180Y006600D03*
X014180Y006600D03*
X012680Y007600D03*
X012680Y008600D03*
X009180Y010600D03*
X009180Y011600D03*
X012680Y005600D03*
X016680Y005600D03*
X043180Y033100D03*
X044180Y033100D03*
X045180Y033100D03*
X046180Y033100D03*
X047180Y033100D03*
X048180Y033100D03*
X049180Y033100D03*
X050180Y033100D03*
X051180Y033100D03*
X052180Y033100D03*
X053180Y033100D03*
X054180Y033100D03*
X055180Y033100D03*
X056180Y033100D03*
X057180Y033100D03*
X058180Y033100D03*
X059180Y033100D03*
X060180Y033100D03*
X057680Y035600D03*
X057680Y036600D03*
X066180Y038600D03*
X066180Y039600D03*
X066180Y040600D03*
X069180Y040600D03*
X069180Y039600D03*
X069180Y038600D03*
X071680Y038600D03*
X071680Y037600D03*
X071680Y039600D03*
X071680Y040600D03*
X071680Y041600D03*
X075680Y041600D03*
X075680Y040600D03*
X075680Y039600D03*
X075680Y038600D03*
X075680Y037600D03*
X078555Y037600D03*
X078555Y038600D03*
X039430Y034600D03*
X039430Y033600D03*
X038180Y033600D03*
X037180Y033600D03*
X036180Y033600D03*
X035180Y033600D03*
X034180Y033600D03*
X033180Y033600D03*
X032180Y033600D03*
X031180Y033600D03*
X030180Y033600D03*
X029180Y033600D03*
X029180Y036600D03*
X030180Y036600D03*
X031180Y036600D03*
X032180Y036600D03*
X033180Y036600D03*
X034180Y036600D03*
X035180Y036600D03*
X036180Y036600D03*
X037180Y036600D03*
X038180Y036600D03*
X038180Y037600D03*
X037180Y037600D03*
X037180Y038600D03*
X036180Y038600D03*
X035180Y038600D03*
X034180Y038600D03*
X033180Y038600D03*
X032180Y038600D03*
X031180Y038600D03*
X030180Y038600D03*
X030180Y037600D03*
X031180Y037600D03*
X032180Y037600D03*
X033180Y037600D03*
X034180Y037600D03*
X035180Y037600D03*
X036180Y037600D03*
X036180Y041600D03*
X035180Y041600D03*
X034180Y041600D03*
X033180Y041600D03*
X032180Y041600D03*
X031180Y041600D03*
X030180Y041600D03*
X037180Y041600D03*
D12*
X061180Y040600D03*
X062180Y040600D03*
X063180Y040600D03*
X063180Y039600D03*
X062180Y039600D03*
X061180Y039600D03*
X061180Y038100D03*
X062180Y038100D03*
X063180Y038100D03*
X063180Y037100D03*
X062180Y037100D03*
X061180Y037100D03*
X061180Y035600D03*
X062180Y035600D03*
X063180Y035600D03*
X063180Y034600D03*
X062180Y034600D03*
X061180Y034600D03*
X041180Y029600D03*
X040180Y029600D03*
X040180Y028600D03*
X041180Y028600D03*
X041180Y027600D03*
X040180Y027600D03*
X038180Y028600D03*
X038180Y029600D03*
X036180Y029600D03*
X036180Y028600D03*
X034180Y027100D03*
X032180Y027100D03*
X030180Y027100D03*
X030180Y026100D03*
X032180Y026100D03*
X034180Y026100D03*
X048180Y006600D03*
X048180Y005600D03*
X048180Y004600D03*
D13*
X048180Y035600D03*
X047180Y035600D03*
X046180Y035600D03*
X045180Y035600D03*
X044180Y035600D03*
X043180Y035600D03*
X049180Y035600D03*
X050180Y035600D03*
X051180Y035600D03*
X052180Y035600D03*
X053180Y035600D03*
X054180Y035600D03*
X055180Y035600D03*
X056180Y035600D03*
X056180Y041600D03*
X055180Y041600D03*
X054180Y041600D03*
X053180Y041600D03*
X052180Y041600D03*
X051180Y041600D03*
X050180Y041600D03*
X049180Y041600D03*
X048180Y041600D03*
X047180Y041600D03*
X046180Y041600D03*
X045180Y041600D03*
X044180Y041600D03*
X043180Y041600D03*
D14*
X066139Y035631D03*
X066139Y019819D03*
D15*
X067320Y019819D03*
X067320Y035631D03*
D16*
X060180Y001600D03*
D17*
X048180Y009600D03*
X046180Y009600D03*
D18*
X002180Y005100D03*
X002180Y041100D03*
X078180Y041100D03*
X078180Y005100D03*
D19*
X047180Y004725D03*
X047180Y004225D03*
X047180Y003725D03*
X046180Y003725D03*
X046180Y004225D03*
X046180Y004725D03*
D20*
X049180Y004100D03*
X050680Y004100D03*
X053680Y004600D03*
X054680Y004100D03*
X055680Y004100D03*
X056680Y004100D03*
X058180Y004100D03*
X059180Y004100D03*
X060180Y004100D03*
X061180Y004100D03*
X062180Y004100D03*
X063180Y004100D03*
X064180Y004100D03*
X065180Y004100D03*
X066180Y004100D03*
X067180Y004100D03*
X068180Y004100D03*
X069180Y004100D03*
X070180Y004100D03*
X073680Y009100D03*
X068305Y011475D03*
X069680Y013600D03*
X059430Y017350D03*
X056680Y017225D03*
X056180Y017600D03*
X053680Y017350D03*
X051180Y016975D03*
X049680Y017725D03*
X048680Y016600D03*
X047680Y017350D03*
X046680Y017225D03*
X042680Y014600D03*
X037180Y014600D03*
X032680Y016725D03*
X031180Y017225D03*
X030180Y017725D03*
X028930Y016725D03*
X028180Y017100D03*
X027180Y017350D03*
X026180Y017600D03*
X025680Y014725D03*
X028680Y014725D03*
X031680Y014100D03*
X032680Y010975D03*
X033930Y010850D03*
X034305Y010475D03*
X029180Y010975D03*
X027180Y010600D03*
X021680Y009600D03*
X021305Y009100D03*
X018680Y010975D03*
X016930Y008350D03*
X015180Y008600D03*
X006180Y009600D03*
X015180Y013600D03*
X017180Y014600D03*
X029180Y020850D03*
X030180Y021225D03*
X031180Y021600D03*
X032180Y022100D03*
X028180Y023350D03*
X027180Y023725D03*
X026680Y023350D03*
X025555Y027600D03*
X027680Y029100D03*
X029180Y030850D03*
X031180Y030350D03*
X033180Y030100D03*
X033680Y031350D03*
X036680Y032600D03*
X037180Y032225D03*
X042180Y032975D03*
X040805Y034475D03*
X041805Y036100D03*
X039180Y036475D03*
X033180Y035350D03*
X028305Y032600D03*
X027805Y032225D03*
X026180Y032975D03*
X024930Y030850D03*
X039930Y024850D03*
X043680Y023225D03*
X044680Y023475D03*
X045680Y023725D03*
X046180Y022600D03*
X047680Y021225D03*
X046680Y020850D03*
X048680Y021600D03*
X050180Y022100D03*
X049680Y022600D03*
X051680Y022350D03*
X052680Y022100D03*
X053305Y021725D03*
X053680Y021350D03*
X052680Y020975D03*
X051680Y020600D03*
X050680Y020225D03*
X042180Y020475D03*
X041555Y020350D03*
X040930Y020225D03*
X040305Y020100D03*
X036680Y020850D03*
X052680Y013600D03*
X054430Y013975D03*
X050680Y011850D03*
X050680Y010975D03*
X051555Y010975D03*
X051555Y010350D03*
X050055Y008600D03*
X051555Y007475D03*
X042180Y011350D03*
X039930Y011100D03*
X041180Y008600D03*
X058680Y013100D03*
X060930Y018975D03*
X061180Y019475D03*
X061430Y019975D03*
X061680Y020475D03*
X061930Y020975D03*
X062180Y021475D03*
X062430Y021975D03*
X062680Y022475D03*
X061555Y027975D03*
X061555Y028475D03*
X062055Y028475D03*
X062055Y028975D03*
X062555Y028975D03*
X062555Y029475D03*
X063055Y029475D03*
X057680Y030225D03*
X056680Y029725D03*
X056180Y030100D03*
X055680Y029100D03*
X057180Y029225D03*
X054680Y028975D03*
X049180Y031225D03*
X048180Y031475D03*
X047180Y031725D03*
X046180Y031975D03*
X045180Y032225D03*
X054180Y037350D03*
X054680Y037100D03*
X058930Y039600D03*
X059555Y039100D03*
X055680Y040600D03*
X061180Y033600D03*
M02*
