%
M48
M72
T01C0.0197
T02C0.0236
T03C0.0315
T04C0.0320
T05C0.0354
T06C0.0400
T07C0.0669
T08C0.0866
T09C0.1600
%
T01
X25680Y8100
X26680Y8100
X27680Y8100
X28680Y8100
X29680Y8100
X30680Y8100
X31680Y8100
X32680Y8100
X73305Y18975
X73805Y19475
X74305Y18975
X73805Y35975
X73305Y36475
X74305Y36475
T02
X77680Y34225
X71930Y32600
X71680Y32100
X71430Y31600
X67930Y30725
X67180Y31100
X66430Y30850
X67680Y31850
X63055Y29475
X62555Y29475
X62555Y28975
X62055Y28975
X62055Y28475
X61555Y28475
X61555Y27975
X59430Y25975
X59055Y25975
X61180Y25600
X66805Y24725
X67930Y24725
X66805Y26850
X66805Y27725
X67930Y27725
X72680Y29225
X77680Y29225
X77680Y24225
X75930Y24100
X75680Y23600
X75430Y23100
X75180Y22600
X74930Y22100
X72555Y21600
X77680Y19225
X68680Y18475
X68430Y18225
X65305Y21100
X62680Y22475
X62430Y21975
X62180Y21475
X61930Y20975
X61680Y20475
X61430Y19975
X61180Y19475
X60930Y18975
X59430Y17350
X58805Y16225
X58180Y15350
X58180Y14975
X58680Y13100
X54430Y13975
X52680Y13600
X52680Y12225
X50680Y11850
X50680Y10975
X51555Y10975
X51555Y10350
X50055Y8600
X51555Y7475
X55680Y6600
X53680Y4600
X54680Y4100
X55680Y4100
X56680Y4100
X58180Y4100
X59180Y4100
X60180Y4100
X61180Y4100
X62180Y4100
X63180Y4100
X64180Y4100
X65180Y4100
X66180Y4100
X67180Y4100
X68180Y4100
X69180Y4100
X70180Y4100
X71180Y4100
X75180Y4225
X75180Y4600
X69680Y8100
X67555Y6600
X64055Y6600
X70680Y9850
X68305Y11475
X70680Y12100
X69680Y13600
X77680Y14225
X73680Y9100
X56680Y17225
X56180Y17600
X53680Y17350
X51180Y16975
X49680Y17725
X48680Y18100
X47680Y17350
X46680Y17225
X47680Y16100
X48680Y16600
X49680Y14975
X48180Y14600
X42680Y14600
X38180Y16600
X37180Y14600
X37680Y13100
X35805Y12600
X33930Y10850
X34305Y10475
X32680Y10975
X30680Y10100
X29180Y10975
X28680Y10100
X27180Y10600
X26680Y10100
X22805Y10100
X21680Y9600
X21305Y9100
X18680Y10975
X14180Y11725
X15180Y13600
X17180Y14600
X18305Y14100
X22680Y15475
X25680Y14725
X26680Y15100
X28680Y14725
X30680Y15100
X31680Y14100
X32680Y16725
X31180Y17225
X30180Y17725
X28930Y16725
X28180Y17100
X27180Y17350
X26180Y17600
X23680Y17975
X19680Y17100
X12805Y21100
X12805Y22100
X17430Y22600
X10930Y25475
X17930Y27225
X20430Y29725
X22930Y32225
X24930Y30850
X27430Y29975
X27680Y29100
X25555Y27600
X25680Y25600
X28680Y24100
X28180Y23350
X27180Y23725
X26680Y23350
X29680Y22475
X31180Y21600
X30180Y21225
X29180Y20850
X32180Y22100
X36555Y22725
X38305Y22725
X39930Y24850
X41680Y26100
X45680Y23725
X44680Y23475
X43680Y23225
X42055Y22725
X46180Y22600
X46680Y23975
X47680Y24100
X49680Y22600
X50180Y22100
X48680Y21600
X47680Y21225
X46680Y20850
X42680Y19225
X42180Y20475
X41555Y20350
X40930Y20225
X40305Y20100
X36680Y20850
X50680Y20225
X51680Y20600
X52680Y20975
X53305Y21725
X53680Y21350
X52680Y22100
X51680Y22350
X54680Y28975
X55680Y29100
X57180Y29225
X56680Y29725
X56180Y30100
X57680Y30225
X61180Y33600
X59680Y34600
X59805Y35225
X58680Y36600
X56930Y36100
X56680Y35100
X54680Y37100
X54180Y37350
X58930Y39600
X59555Y39100
X55680Y40600
X57680Y42350
X62680Y42350
X67680Y42350
X72680Y42350
X68680Y37100
X69055Y36725
X70180Y34225
X65305Y34350
X64055Y34350
X49180Y31225
X48180Y31475
X47180Y31725
X46180Y31975
X45180Y32225
X42180Y32975
X40805Y34475
X41805Y36100
X42430Y36100
X43180Y37100
X41930Y38100
X39180Y36475
X33180Y35350
X36680Y32600
X37180Y32225
X36680Y31600
X38180Y32100
X33680Y31350
X33180Y30100
X31180Y30350
X29180Y30850
X30180Y31600
X28305Y32600
X27805Y32225
X26180Y32975
X25430Y34725
X33680Y40100
X42680Y42350
X47680Y42350
X52680Y42350
X42805Y29850
X42180Y11350
X39930Y11100
X41180Y8600
X46430Y6225
X46805Y6225
X49180Y4100
X50680Y4100
X40930Y3975
X35930Y3975
X34930Y4725
X30930Y3975
X25930Y3975
X22055Y4725
X20930Y3975
X19680Y6100
X15930Y3975
X13430Y4725
X10930Y3975
X8430Y6475
X5930Y8975
X6180Y9600
X3430Y11475
X15180Y8600
X16930Y8350
X15680Y7100
X32680Y8975
X47555Y9600
X2930Y18725
T03
X46180Y4725
X46180Y4225
X46180Y3725
X47180Y3725
X47180Y4225
X47180Y4725
T04
X44180Y6600
X43180Y6600
X42180Y6600
X41180Y6600
X40180Y6600
X39180Y6600
X38180Y6600
X37180Y6600
X35680Y7600
X35680Y8600
X37180Y9600
X38180Y9600
X39180Y9600
X40180Y9600
X41180Y9600
X42180Y9600
X43180Y9600
X44180Y9600
X44180Y12600
X43180Y12600
X42180Y12600
X41180Y12600
X40180Y12600
X39180Y12600
X38180Y12600
X37180Y12600
X35555Y13600
X35555Y14600
X37180Y15600
X38180Y15600
X39180Y15600
X40180Y15600
X41180Y15600
X42180Y15600
X43180Y15600
X44180Y15600
X46930Y14600
X46930Y13600
X48180Y12600
X49180Y12600
X50180Y12600
X51180Y12600
X52180Y12600
X53180Y12600
X54180Y12600
X55180Y12600
X56180Y12600
X57180Y12600
X57180Y10600
X56180Y10600
X55180Y10600
X53930Y9600
X53930Y8600
X55180Y7600
X56180Y7600
X57180Y7600
X58180Y7600
X59180Y7600
X60180Y7600
X61180Y7600
X62180Y7600
X63180Y7600
X64180Y7600
X67930Y8600
X69180Y7600
X70180Y7600
X71180Y7600
X72180Y7600
X73180Y7600
X74180Y7600
X75180Y7600
X76180Y7600
X77180Y7600
X78180Y7600
X78180Y10600
X77180Y10600
X76180Y10600
X75180Y10600
X75180Y11600
X76180Y11600
X77180Y11600
X78180Y11600
X74180Y11600
X73180Y11600
X72180Y11600
X71180Y11600
X70180Y11600
X70180Y10600
X69180Y10600
X67930Y9600
X71180Y10600
X72180Y10600
X73180Y10600
X74180Y10600
X71180Y12600
X70180Y12600
X69180Y12600
X68180Y12600
X67180Y12600
X66180Y12600
X65180Y12600
X64180Y12600
X63180Y12600
X62180Y12600
X62180Y10600
X61180Y10600
X60180Y10600
X59180Y10600
X58180Y10600
X63180Y10600
X64180Y10600
X64180Y15600
X63180Y15600
X62180Y15600
X62180Y16600
X63180Y16600
X65180Y15600
X66180Y15600
X67180Y15600
X68180Y15600
X69180Y15600
X70180Y15600
X71180Y15600
X59430Y18600
X59430Y19600
X58180Y18600
X57180Y18600
X56180Y18600
X55180Y18600
X54180Y18600
X53180Y18600
X52180Y18600
X51180Y18600
X50180Y18600
X49180Y18600
X48180Y18600
X47180Y18600
X46180Y18600
X45180Y18600
X44180Y18600
X43180Y18600
X39430Y18600
X38180Y18600
X37180Y18600
X36180Y18600
X35180Y18600
X34180Y18600
X33180Y18600
X32180Y18600
X31180Y18600
X30180Y18600
X29180Y18600
X28180Y18600
X27180Y18600
X26180Y18600
X25180Y18600
X22180Y16600
X20180Y15600
X19180Y15600
X18180Y15600
X17180Y15600
X16180Y15600
X15180Y15600
X14180Y15600
X12680Y14600
X12680Y13600
X14180Y12600
X15180Y12600
X16180Y12600
X17180Y12600
X18180Y12600
X19180Y12600
X20180Y12600
X22680Y13600
X22680Y14600
X24180Y15600
X25180Y15600
X26180Y15600
X27180Y15600
X28180Y15600
X29180Y15600
X30180Y15600
X31180Y15600
X32180Y15600
X33180Y15600
X33180Y12600
X32180Y12600
X31180Y12600
X30180Y12600
X29180Y12600
X28180Y12600
X27180Y12600
X26180Y12600
X25180Y12600
X24180Y12600
X24180Y9600
X25180Y9600
X26180Y9600
X27180Y9600
X28180Y9600
X29180Y9600
X30180Y9600
X31180Y9600
X32180Y9600
X33180Y9600
X33180Y6600
X32180Y6600
X31180Y6600
X30180Y6600
X29180Y6600
X28180Y6600
X27180Y6600
X26180Y6600
X25180Y6600
X24180Y6600
X22680Y7600
X22680Y8600
X20180Y9600
X19180Y9600
X18180Y9600
X17180Y9600
X16180Y9600
X15180Y9600
X14180Y9600
X13180Y10600
X13180Y11600
X10180Y12600
X9180Y12600
X8180Y12600
X7180Y12600
X6180Y12600
X5180Y12600
X4180Y12600
X2680Y13600
X2680Y14600
X4180Y15600
X5180Y15600
X6180Y15600
X7180Y15600
X8180Y15600
X9180Y15600
X10180Y15600
X12680Y16600
X16680Y16600
X18180Y16600
X8180Y17600
X7180Y17600
X5680Y17600
X4680Y17600
X5180Y18350
X5180Y21100
X5180Y22100
X7180Y21600
X8180Y21600
X25180Y24600
X26180Y24600
X27180Y24600
X28180Y24600
X29180Y24600
X30180Y24600
X31180Y24600
X32180Y24600
X33180Y24600
X34180Y24600
X35180Y24600
X36180Y24600
X37180Y24600
X38180Y24600
X37180Y25600
X37180Y26600
X43180Y27100
X44180Y27100
X45180Y27100
X46180Y27100
X47180Y27100
X48180Y27100
X49180Y27100
X50180Y27100
X51180Y27100
X52180Y27100
X53180Y27100
X54180Y27100
X55180Y27100
X56180Y27100
X57180Y27100
X58180Y27100
X59430Y27100
X60680Y27100
X60680Y28100
X59430Y28100
X58180Y24600
X57180Y24600
X56180Y24600
X55180Y24600
X54180Y24600
X53180Y24600
X52180Y24600
X51180Y24600
X50180Y24600
X49180Y24600
X48180Y24600
X47180Y24600
X46180Y24600
X45180Y24600
X44180Y24600
X43180Y24600
X39430Y19600
X48180Y15600
X49180Y15600
X50180Y15600
X51180Y15600
X52180Y15600
X53180Y15600
X54180Y15600
X55180Y15600
X56180Y15600
X57180Y15600
X57180Y33100
X56180Y33100
X55180Y33100
X54180Y33100
X53180Y33100
X52180Y33100
X51180Y33100
X50180Y33100
X49180Y33100
X48180Y33100
X47180Y33100
X46180Y33100
X45180Y33100
X44180Y33100
X43180Y33100
X39430Y33600
X38180Y33600
X37180Y33600
X36180Y33600
X35180Y33600
X34180Y33600
X33180Y33600
X32180Y33600
X31180Y33600
X30180Y33600
X29180Y33600
X29180Y36600
X30180Y36600
X31180Y36600
X32180Y36600
X33180Y36600
X34180Y36600
X35180Y36600
X36180Y36600
X37180Y36600
X38180Y36600
X38180Y37600
X37180Y37600
X37180Y38600
X36180Y38600
X35180Y38600
X34180Y38600
X33180Y38600
X32180Y38600
X31180Y38600
X30180Y38600
X30180Y37600
X31180Y37600
X32180Y37600
X33180Y37600
X34180Y37600
X35180Y37600
X36180Y37600
X39430Y34600
X37180Y41600
X36180Y41600
X35180Y41600
X34180Y41600
X33180Y41600
X32180Y41600
X31180Y41600
X30180Y41600
X57680Y36600
X57680Y35600
X58180Y33100
X59180Y33100
X60180Y33100
X66180Y38600
X66180Y39600
X66180Y40600
X69180Y40600
X69180Y39600
X69180Y38600
X71680Y38600
X71680Y37600
X71680Y39600
X71680Y40600
X71680Y41600
X75680Y41600
X75680Y40600
X75680Y39600
X75680Y38600
X75680Y37600
X78555Y37600
X78555Y38600
X20180Y6600
X19180Y6600
X18180Y6600
X17180Y6600
X16180Y6600
X15180Y6600
X14180Y6600
X12680Y7600
X12680Y8600
X9180Y10600
X9180Y11600
X12680Y5600
X16680Y5600
T05
X43180Y35600
X44180Y35600
X45180Y35600
X46180Y35600
X47180Y35600
X48180Y35600
X49180Y35600
X50180Y35600
X51180Y35600
X52180Y35600
X53180Y35600
X54180Y35600
X55180Y35600
X56180Y35600
X56180Y41600
X55180Y41600
X54180Y41600
X53180Y41600
X52180Y41600
X51180Y41600
X50180Y41600
X49180Y41600
X48180Y41600
X47180Y41600
X46180Y41600
X45180Y41600
X44180Y41600
X43180Y41600
T06
X61180Y40600
X62180Y40600
X63180Y40600
X63180Y39600
X62180Y39600
X61180Y39600
X61180Y38100
X62180Y38100
X63180Y38100
X63180Y37100
X62180Y37100
X61180Y37100
X61180Y35600
X62180Y35600
X63180Y35600
X63180Y34600
X62180Y34600
X61180Y34600
X41180Y29600
X40180Y29600
X40180Y28600
X41180Y28600
X41180Y27600
X40180Y27600
X38180Y28600
X38180Y29600
X36180Y29600
X36180Y28600
X34180Y27100
X32180Y27100
X30180Y27100
X30180Y26100
X32180Y26100
X34180Y26100
X46180Y9600
X48180Y9600
X48180Y6600
X48180Y5600
X48180Y4600
T07
X67320Y19819
X67320Y35631
T08
X66139Y35631
X66139Y19819
T09
X2180Y5100
X2180Y41100
X78180Y41100
X78180Y5100
M30
